<mxfile host="app.diagrams.net" modified="2025-10-08T00:00:00.000Z" agent="AI" version="24.7.5" editor="draw.io">
  <diagram id="address-book" name="Address Book">
    <mxGraphModel dx="1220" dy="720" grid="1" gridSize="10" guides="1" tooltips="1" connect="1" arrows="1" fold="1" page="1" pageScale="1" pageWidth="1100" pageHeight="850" math="0" shadow="0">
      <root>
        <mxCell id="0"/>
        <mxCell id="1" parent="0"/>
        <mxCell id="app" value="App (Container)" style="rounded=1;whiteSpace=wrap;html=1;fillColor=#dae8fc;strokeColor=#6c8ebf;" vertex="1" parent="1">
          <mxGeometry x="120" y="80" width="200" height="80" as="geometry"/>
        </mxCell>
        <mxCell id="form" value="AddForm (Controlled)" style="rounded=1;whiteSpace=wrap;html=1;fillColor=#d5e8d4;strokeColor=#82b366;" vertex="1" parent="1">
          <mxGeometry x="80" y="220" width="220" height="70" as="geometry"/>
        </mxCell>
        <mxCell id="search" value="Search (Controlled)" style="rounded=1;whiteSpace=wrap;html=1;fillColor=#fff2cc;strokeColor=#d6b656;" vertex="1" parent="1">
          <mxGeometry x="320" y="220" width="220" height="70" as="geometry"/>
        </mxCell>
        <mxCell id="table" value="Table (Editable Rows)" style="rounded=1;whiteSpace=wrap;html=1;fillColor=#f8cecc;strokeColor=#b85450;" vertex="1" parent="1">
          <mxGeometry x="120" y="320" width="420" height="120" as="geometry"/>
        </mxCell>
        <mxCell id="types" value="types.Book" style="shape=datastore;whiteSpace=wrap;html=1;fillColor=#f5f5f5;strokeColor=#666666;" vertex="1" parent="1">
          <mxGeometry x="620" y="120" width="120" height="70" as="geometry"/>
        </mxCell>
        <mxCell id="storage" value="storage (load/save/generateId)" style="shape=datastore;whiteSpace=wrap;html=1;fillColor=#f5f5f5;strokeColor=#666666;" vertex="1" parent="1">
          <mxGeometry x="600" y="260" width="180" height="90" as="geometry"/>
        </mxCell>
        <mxCell id="edge1" edge="1" parent="1" source="app" target="form">
          <mxGeometry relative="1" as="geometry"/>
        </mxCell>
        <mxCell id="edge2" edge="1" parent="1" source="app" target="search">
          <mxGeometry relative="1" as="geometry"/>
        </mxCell>
        <mxCell id="edge3" edge="1" parent="1" source="app" target="table">
          <mxGeometry relative="1" as="geometry"/>
        </mxCell>
        <mxCell id="edge4" edge="1" parent="1" source="app" target="storage">
          <mxGeometry relative="1" as="geometry"/>
        </mxCell>
        <mxCell id="edge5" edge="1" parent="1" source="app" target="types">
          <mxGeometry relative="1" as="geometry"/>
        </mxCell>
      </root>
    </mxGraphModel>
  </diagram>
  
</mxfile>


